{"context": " More than 1 year has passed since last update.DVD\u306eVOB\u30d5\u30a1\u30a4\u30eb\u306f\u4ee5\u4e0b\u306e\u3088\u3046\u306a\u69cb\u6210\u306b\u306a\u3063\u3066\u3044\u308b\u3002\nStream #0:0[0x1bf]: Data: dvd_nav_packet\nStream #0:1[0x1e0]: Video: mpeg2video (Main), yuv420p(tv), 720x480 [SAR 32:27 DAR 16:9], 6000 kb/s, 30.37 fps, 59.94 tbr, 90k tbn, 59.94 tbc\nStream #0:2[0x80]: Audio: ac3, 48000 Hz, 5.1(side), fltp, 448 kb/s\nStream #0:3[0x81]: Audio: ac3, 48000 Hz, 5.1(side), fltp, 448 kb/s\nStream #0:4[0x20]: Subtitle: dvd_subtitle\nStream #0:5[0x21]: Subtitle: dvd_subtitle\n\u3053\u306e\u3046\u3061 stream 0:1\u304cvideo\u3001\n0:2\u304c\u82f1\u8a9e\u306e\u97f3\u58f0\u30010:3\u304c\u65e5\u672c\u8a9e\u5439\u304d\u66ff\u3048\n0:4\u304c\u65e5\u672c\u8a9e\u5b57\u5e55\u30010:5\u304c\u82f1\u8a9e\u5b57\u5e55\n\u3068\u306a\u3063\u3066\u3044\u308b\u3002\n\u52d5\u753b0:1\u30680:2\u306e\u82f1\u8a9e\u97f3\u58f0\u30010:4\u306e\u65e5\u672c\u8a9e\u5b57\u5e55\u3092\u7528\u3044\u308b\u5834\u5408\nhttp://xanadu62.blogspot.jp/2013/05/ffmpegdvd.html\n\u3092\u53c2\u8003\u306b\ncat VTS_01_[1234].VOB | \\\nnice ffmpeg -analyzeduration 120M -probesize 120M \\\n-ifo_palette VTS_01_0.IFO -i - \\\n-filter_complex \"[0:1][0:4]overlay[1]\"  \\\n-map [1] -c:v libx264 -preset veryfast \\\n-map 0:2 -c:a ac3 test.mp4\nDVD\u306eVOB\u30d5\u30a1\u30a4\u30eb\u306f\u4ee5\u4e0b\u306e\u3088\u3046\u306a\u69cb\u6210\u306b\u306a\u3063\u3066\u3044\u308b\u3002\n\nStream #0:0[0x1bf]: Data: dvd_nav_packet\nStream #0:1[0x1e0]: Video: mpeg2video (Main), yuv420p(tv), 720x480 [SAR 32:27 DAR 16:9], 6000 kb/s, 30.37 fps, 59.94 tbr, 90k tbn, 59.94 tbc\nStream #0:2[0x80]: Audio: ac3, 48000 Hz, 5.1(side), fltp, 448 kb/s\nStream #0:3[0x81]: Audio: ac3, 48000 Hz, 5.1(side), fltp, 448 kb/s\nStream #0:4[0x20]: Subtitle: dvd_subtitle\nStream #0:5[0x21]: Subtitle: dvd_subtitle\n\n\u3053\u306e\u3046\u3061 stream 0:1\u304cvideo\u3001\n0:2\u304c\u82f1\u8a9e\u306e\u97f3\u58f0\u30010:3\u304c\u65e5\u672c\u8a9e\u5439\u304d\u66ff\u3048\n0:4\u304c\u65e5\u672c\u8a9e\u5b57\u5e55\u30010:5\u304c\u82f1\u8a9e\u5b57\u5e55\n\u3068\u306a\u3063\u3066\u3044\u308b\u3002\n\n\u52d5\u753b0:1\u30680:2\u306e\u82f1\u8a9e\u97f3\u58f0\u30010:4\u306e\u65e5\u672c\u8a9e\u5b57\u5e55\u3092\u7528\u3044\u308b\u5834\u5408\n\nhttp://xanadu62.blogspot.jp/2013/05/ffmpegdvd.html\n\u3092\u53c2\u8003\u306b\n\ncat VTS_01_[1234].VOB | \\\nnice ffmpeg -analyzeduration 120M -probesize 120M \\\n-ifo_palette VTS_01_0.IFO -i - \\\n-filter_complex \"[0:1][0:4]overlay[1]\"  \\\n-map [1] -c:v libx264 -preset veryfast \\\n-map 0:2 -c:a ac3 test.mp4\n\n\n\n\n\n\n", "tags": ["ffmpeg", "VOB"]}